<?xml version="1.0" standalone="no"?>
<!DOCTYPE svg PUBLIC "-//W3C//DTD SVG 20010904//EN"
 "http://www.w3.org/TR/2001/REC-SVG-20010904/DTD/svg10.dtd">
<svg version="1.0" xmlns="http://www.w3.org/2000/svg"
 width="512.000000pt" height="512.000000pt" viewBox="0 0 512.000000 512.000000"
 preserveAspectRatio="xMidYMid meet">
<metadata>
Created by potrace 1.14, written by Peter Selinger 2001-2017
</metadata>
<g transform="translate(0.000000,512.000000) scale(0.100000,-0.100000)"
fill="#000000" stroke="none">
<path d="M809 4965 c0 -22 0 -145 0 -272 l1 -233 -57 0 c-32 0 -214 0 -405 0
l-348 0 0 -460 c0 -431 1 -460 18 -461 9 0 191 0 405 -1 284 0 387 -3 388 -11
7 -80 2 -527 -6 -530 -5 -2 -189 -3 -407 -3 l-398 1 0 -452 0 -452 401 0 c220
0 403 -3 407 -5 5 -3 8 -457 3 -523 -1 -10 -89 -13 -406 -13 l-405 0 0 -460 0
-461 383 1 c210 1 393 1 407 1 l25 -1 -2 -237 c-1 -131 0 -247 2 -258 4 -20 5
-20 2155 -20 l2150 0 0 2445 0 2445 -2155 0 -2155 0 -1 -40z m782 -705 c3 -44
4 -507 1 -516 -2 -8 -196 -12 -708 -12 l-704 0 0 273 0 273 705 -1 c620 -2
705 -4 706 -17z m4 -1703 c0 -231 -2 -267 -15 -268 -22 0 -1297 0 -1352 0
l-48 1 0 270 0 270 707 -2 707 -3 1 -268z m-4 -1199 c3 -33 4 -514 2 -523 -3
-8 -1066 -12 -1390 -5 l-23 0 0 270 0 270 705 0 c557 0 705 -3 706 -12z"/>
</g>
</svg>
